<svg xmlns="http://www.w3.org/2000/svg" fill="none" viewBox="7.03 7.03 25.89 25.89"><mask id="mask0_461_2736" style="mask-type:luminance" maskUnits="userSpaceOnUse" x="7" y="7" width="26" height="26"><path d="M7.02783 7.02797H32.9213V32.9214H7.02783V7.02797Z" fill="white"></path></mask><g mask="url(#mask0_461_2736)"><path d="M19.9749 7.02797C12.8237 7.02797 7.02783 12.8262 7.02783 19.975C7.02783 27.1274 12.8237 32.9214 19.9749 32.9214C27.1249 32.9214 32.9213 27.1274 32.9213 19.975C32.9213 12.8262 27.1249 7.02797 19.9749 7.02797Z" fill="#FFD740"></path></g><path d="M19.975 8.97144C13.8976 8.97144 8.97021 13.8982 8.97021 19.975C8.97021 26.0524 13.8976 30.9792 19.975 30.9792C26.0518 30.9792 30.9785 26.0524 30.9785 19.975C30.9785 13.8982 26.0518 8.97144 19.975 8.97144Z" fill="#F57F17"></path><path d="M19.975 9.77856C13.8976 9.77856 8.97021 13.8982 8.97021 19.975C8.97021 26.0524 13.8976 30.9792 19.975 30.9792C26.0518 30.9792 30.9785 26.0524 30.9785 19.975C30.9785 13.8982 26.0518 9.77856 19.975 9.77856Z" fill="#FFAB00"></path><path d="M23.5447 21.0458C23.0322 20.4339 22.0607 19.9345 20.6417 19.5512C20.5566 19.5262 19.5405 19.2077 19.3524 19.122C18.9673 18.9577 18.6804 18.7411 18.4911 18.4702C18.3911 18.3274 18.3179 18.1804 18.2697 18.0238C18.2691 18.0184 18.2667 18.0089 18.2655 18.0018C18.2572 17.9809 18.2512 17.9583 18.247 17.9375C18.2119 17.8119 18.1911 17.6798 18.1911 17.5434C18.1911 16.6482 18.9828 15.925 19.9548 15.925C20.9113 15.925 21.6881 16.6238 21.7155 17.4964L23.9542 17.2042V16.3952L23.2881 15.5345L23.2875 15.5363C23.1685 15.3708 23.0369 15.2173 22.8899 15.0768C22.331 14.5482 21.5822 14.2244 20.6417 14.1113V12.8929H19.3524V14.1113C18.3345 14.2137 17.5173 14.5934 16.9042 15.2548C16.2917 15.9137 15.9851 16.7304 15.9851 17.7012C15.9851 18.6613 16.2578 19.4756 16.7976 20.1494C17.3411 20.8208 18.1917 21.322 19.3524 21.6559C19.5381 21.7155 20.5238 22.0012 20.6417 22.0381C21.1732 22.1911 21.5583 22.4107 21.7917 22.697C22.025 22.9863 22.1435 23.3292 22.1435 23.7268C22.1435 24.169 22.0036 24.5565 21.725 24.8851C21.4458 25.2125 21.0845 25.419 20.6417 25.5024C20.1488 25.5857 19.6012 25.519 19.3524 25.3774C19.0339 25.2238 18.7429 24.9744 18.4816 24.6321C18.2203 24.2869 18.0453 23.8798 17.9482 23.4036L15.6304 22.8464V23.6548C15.8089 24.8214 16.2173 25.7238 16.856 26.3643C17.4953 27.0024 18.3268 27.3851 19.3524 27.5089V28.6744H20.6417V27.4655C21.7958 27.3 22.697 26.8518 23.3458 26.1155C23.9935 25.3809 24.3179 24.4768 24.3179 23.4036C24.3179 22.4458 24.0613 21.6589 23.5447 21.0458Z" fill="#F57F17"></path><path d="M20.6417 18.7423C20.5566 18.7173 19.5405 18.3982 19.3524 18.3143C18.9673 18.1488 18.6804 17.9321 18.4911 17.6613C18.3911 17.519 18.3179 17.3714 18.2697 17.2155C18.2691 17.2095 18.2667 17.2006 18.2655 17.1934C18.2572 17.172 18.2512 17.1506 18.247 17.1298C18.2119 17.003 18.1911 16.8714 18.1911 16.7345C18.1911 15.8393 18.9828 15.1173 19.9548 15.1173C20.9113 15.1173 21.6881 15.8155 21.7155 16.6875L23.9542 16.3952C23.8 15.5077 23.4441 14.7976 22.8899 14.269C22.331 13.7393 21.5822 13.4155 20.6417 13.3036V12.0839H19.3524V13.3036C18.3345 13.4054 17.5173 13.7857 16.9042 14.447C16.2917 15.1054 15.9851 15.922 15.9851 16.8923C15.9851 17.853 16.2578 18.6673 16.7976 19.3399C17.3411 20.0131 18.1917 20.5149 19.3524 20.8476C19.5381 20.9065 20.5238 21.1929 20.6417 21.2304C21.1732 21.3821 21.5583 21.6018 21.7917 21.8887C22.025 22.178 22.1435 22.5202 22.1435 22.9173C22.1435 23.3601 22.0036 23.7476 21.725 24.0768C21.4458 24.4042 21.0845 24.6101 20.6417 24.6934C20.1488 24.7774 19.6012 24.7101 19.3524 24.5684C19.0339 24.4149 18.7429 24.1661 18.4816 23.8232C18.2203 23.478 18.0453 23.0714 17.9482 22.5952L15.6304 22.8464C15.8089 24.0125 16.2173 24.9155 16.856 25.5554C17.4953 26.1934 18.3268 26.5768 19.3524 26.7012V27.8661H20.6417V26.6565C21.7958 26.4911 22.697 26.0423 23.3458 25.3071C23.9935 24.5726 24.3179 23.6684 24.3179 22.5952C24.3179 21.6369 24.0613 20.85 23.5447 20.2369C23.0322 19.625 22.0607 19.1256 20.6417 18.7423Z" fill="#FFD740"></path><path d="M15.9919 11.3649C13.7532 11.7768 13.4199 12.1113 13.008 14.3494C12.5955 12.1113 12.2615 11.7768 10.0234 11.3649C12.2615 10.9524 12.5955 10.6185 13.008 8.38036C13.4199 10.6185 13.7532 10.9524 15.9919 11.3649Z" fill="white"></path><path d="M25.7498 19.952C25.6034 19.952 25.4766 19.9247 25.3689 19.8711C25.2605 19.8175 25.1772 19.7378 25.1189 19.633C25.0599 19.5282 25.0308 19.4032 25.0308 19.2568C25.0308 19.1205 25.0599 19.0062 25.1189 18.9139C25.1772 18.8223 25.2671 18.7467 25.3879 18.6878C25.5099 18.6294 25.6695 18.5842 25.8665 18.552C26.0046 18.53 26.1093 18.5062 26.1808 18.4806C26.2522 18.4538 26.2998 18.4235 26.3236 18.3901C26.3486 18.3568 26.3617 18.3151 26.3617 18.2639C26.3617 18.1895 26.3355 18.133 26.2831 18.0949C26.232 18.0556 26.1474 18.0354 26.0284 18.0354C25.901 18.0354 25.7796 18.0639 25.6641 18.1211C25.5498 18.1782 25.4504 18.2532 25.3665 18.3449H25.3236L25.0831 17.983C25.1986 17.8532 25.3409 17.752 25.5093 17.6806C25.6772 17.6092 25.8605 17.5735 26.0593 17.5735C26.3623 17.5735 26.5814 17.6378 26.7165 17.7663C26.8528 17.8949 26.9212 18.0776 26.9212 18.3139V19.3116C26.9212 19.4134 26.9665 19.4639 27.057 19.4639C27.0915 19.4639 27.1248 19.458 27.157 19.4449L27.1879 19.4544L27.2284 19.8544C27.1962 19.8753 27.1522 19.8925 27.095 19.9068C27.0379 19.9193 26.976 19.9259 26.9093 19.9259C26.7712 19.9259 26.6629 19.8997 26.5855 19.8473C26.5093 19.7949 26.4546 19.7128 26.4212 19.5997L26.3784 19.5949C26.2653 19.833 26.0558 19.952 25.7498 19.952ZM25.9331 19.5235C26.0665 19.5235 26.1724 19.4794 26.2522 19.3901C26.3314 19.2997 26.3712 19.1753 26.3712 19.0163V18.783L26.3331 18.7735C26.298 18.802 26.2522 18.8259 26.195 18.8449C26.1391 18.8628 26.0593 18.8806 25.9546 18.8997C25.829 18.9205 25.7385 18.9562 25.6831 19.0068C25.629 19.058 25.6022 19.1294 25.6022 19.2211C25.6022 19.3199 25.6314 19.3949 25.6903 19.4473C25.7486 19.4985 25.8296 19.5235 25.9331 19.5235Z" fill="#FFAB00"></path></svg>