<svg width="90" height="85" viewBox="0 0 80 75" fill="none" xmlns="http://www.w3.org/2000/svg">
<rect x="2" width="75" height="75" rx="10" fill="white"/>
<rect x="5" y="3" width="69" height="69" rx="10" fill="#F4F4F4"/>
<path d="M79 18H77V20H79C79.8 19.2 79.3333 18.3333 79 18Z" fill="#C9C9C9"/>
<path d="M79 24H77V22H79C79.8 22.8 79.3333 23.6667 79 24Z" fill="#C9C9C9"/>
<path d="M79 28H77V26H79C79.8 26.8 79.3333 27.6667 79 28Z" fill="#C9C9C9"/>
<path d="M0.361812 51H2V53H0.361812C-0.293464 52.2 0.08878 51.3333 0.361812 51Z" fill="#C9C9C9"/>
<path d="M0.361812 47H2V49H0.361812C-0.293464 48.2 0.08878 47.3333 0.361812 47Z" fill="#C9C9C9"/>
<path d="M0.361812 55H2V57H0.361812C-0.293464 56.2 0.08878 55.3333 0.361812 55Z" fill="#C9C9C9"/>
<path d="M0.361812 59H2V61H0.361812C-0.293464 60.2 0.08878 59.3333 0.361812 59Z" fill="#C9C9C9"/>
<path d="M16.7544 19.12C16.2744 19.12 15.8594 19.005 15.5094 18.775C15.1694 18.535 14.8894 18.22 14.6694 17.83C14.4594 17.44 14.3044 17.005 14.2044 16.525C14.1044 16.035 14.0544 15.535 14.0544 15.025C14.0544 14.505 14.1044 14.005 14.2044 13.525C14.3144 13.035 14.4744 12.595 14.6844 12.205C14.9044 11.815 15.1844 11.505 15.5244 11.275C15.8644 11.045 16.2694 10.93 16.7394 10.93C17.3794 10.93 17.8944 11.12 18.2844 11.5C18.6744 11.88 18.9594 12.38 19.1394 13C19.3294 13.62 19.4244 14.29 19.4244 15.01C19.4244 15.53 19.3744 16.04 19.2744 16.54C19.1744 17.03 19.0144 17.47 18.7944 17.86C18.5844 18.24 18.3094 18.545 17.9694 18.775C17.6294 19.005 17.2244 19.12 16.7544 19.12ZM16.7394 17.92C17.2094 17.92 17.5694 17.69 17.8194 17.23C18.0794 16.77 18.2094 16.035 18.2094 15.025C18.2094 14.015 18.0794 13.28 17.8194 12.82C17.5694 12.36 17.2044 12.13 16.7244 12.13C16.2644 12.13 15.9044 12.36 15.6444 12.82C15.3944 13.28 15.2694 14.015 15.2694 15.025C15.2694 16.035 15.3994 16.77 15.6594 17.23C15.9194 17.69 16.2794 17.92 16.7394 17.92ZM24.3683 19H23.1683V13.09C22.8783 13.34 22.5883 13.56 22.2983 13.75C22.0083 13.93 21.7083 14.085 21.3983 14.215V13.015C22.4083 12.485 23.0783 11.825 23.4083 11.035H24.3683V19ZM29.7622 19.12C29.2822 19.12 28.8672 19.005 28.5172 18.775C28.1772 18.535 27.8972 18.22 27.6772 17.83C27.4672 17.44 27.3122 17.005 27.2122 16.525C27.1122 16.035 27.0622 15.535 27.0622 15.025C27.0622 14.505 27.1122 14.005 27.2122 13.525C27.3222 13.035 27.4822 12.595 27.6922 12.205C27.9122 11.815 28.1922 11.505 28.5322 11.275C28.8722 11.045 29.2772 10.93 29.7472 10.93C30.3872 10.93 30.9022 11.12 31.2922 11.5C31.6822 11.88 31.9672 12.38 32.1472 13C32.3372 13.62 32.4322 14.29 32.4322 15.01C32.4322 15.53 32.3822 16.04 32.2822 16.54C32.1822 17.03 32.0222 17.47 31.8022 17.86C31.5922 18.24 31.3172 18.545 30.9772 18.775C30.6372 19.005 30.2322 19.12 29.7622 19.12ZM29.7472 17.92C30.2172 17.92 30.5772 17.69 30.8272 17.23C31.0872 16.77 31.2172 16.035 31.2172 15.025C31.2172 14.015 31.0872 13.28 30.8272 12.82C30.5772 12.36 30.2122 12.13 29.7322 12.13C29.2722 12.13 28.9122 12.36 28.6522 12.82C28.4022 13.28 28.2772 14.015 28.2772 15.025C28.2772 16.035 28.4072 16.77 28.6672 17.23C28.9272 17.69 29.2872 17.92 29.7472 17.92ZM36.2661 19.12C35.7861 19.12 35.3711 19.005 35.0211 18.775C34.6811 18.535 34.4011 18.22 34.1811 17.83C33.9711 17.44 33.8161 17.005 33.7161 16.525C33.6161 16.035 33.5661 15.535 33.5661 15.025C33.5661 14.505 33.6161 14.005 33.7161 13.525C33.8261 13.035 33.9861 12.595 34.1961 12.205C34.4161 11.815 34.6961 11.505 35.0361 11.275C35.3761 11.045 35.7811 10.93 36.2511 10.93C36.8911 10.93 37.4061 11.12 37.7961 11.5C38.1861 11.88 38.4711 12.38 38.6511 13C38.8411 13.62 38.9361 14.29 38.9361 15.01C38.9361 15.53 38.8861 16.04 38.7861 16.54C38.6861 17.03 38.5261 17.47 38.3061 17.86C38.0961 18.24 37.8211 18.545 37.4811 18.775C37.1411 19.005 36.7361 19.12 36.2661 19.12ZM36.2511 17.92C36.7211 17.92 37.0811 17.69 37.3311 17.23C37.5911 16.77 37.7211 16.035 37.7211 15.025C37.7211 14.015 37.5911 13.28 37.3311 12.82C37.0811 12.36 36.7161 12.13 36.2361 12.13C35.7761 12.13 35.4161 12.36 35.1561 12.82C34.9061 13.28 34.7811 14.015 34.7811 15.025C34.7811 16.035 34.9111 16.77 35.1711 17.23C35.4311 17.69 35.7911 17.92 36.2511 17.92ZM42.77 19.12C42.29 19.12 41.875 19.005 41.525 18.775C41.185 18.535 40.905 18.22 40.685 17.83C40.475 17.44 40.32 17.005 40.22 16.525C40.12 16.035 40.07 15.535 40.07 15.025C40.07 14.505 40.12 14.005 40.22 13.525C40.33 13.035 40.49 12.595 40.7 12.205C40.92 11.815 41.2 11.505 41.54 11.275C41.88 11.045 42.285 10.93 42.755 10.93C43.395 10.93 43.91 11.12 44.3 11.5C44.69 11.88 44.975 12.38 45.155 13C45.345 13.62 45.44 14.29 45.44 15.01C45.44 15.53 45.39 16.04 45.29 16.54C45.19 17.03 45.03 17.47 44.81 17.86C44.6 18.24 44.325 18.545 43.985 18.775C43.645 19.005 43.24 19.12 42.77 19.12ZM42.755 17.92C43.225 17.92 43.585 17.69 43.835 17.23C44.095 16.77 44.225 16.035 44.225 15.025C44.225 14.015 44.095 13.28 43.835 12.82C43.585 12.36 43.22 12.13 42.74 12.13C42.28 12.13 41.92 12.36 41.66 12.82C41.41 13.28 41.285 14.015 41.285 15.025C41.285 16.035 41.415 16.77 41.675 17.23C41.935 17.69 42.295 17.92 42.755 17.92ZM49.2739 19.12C48.7939 19.12 48.3789 19.005 48.0289 18.775C47.6889 18.535 47.4089 18.22 47.1889 17.83C46.9789 17.44 46.8239 17.005 46.7239 16.525C46.6239 16.035 46.5739 15.535 46.5739 15.025C46.5739 14.505 46.6239 14.005 46.7239 13.525C46.8339 13.035 46.9939 12.595 47.2039 12.205C47.4239 11.815 47.7039 11.505 48.0439 11.275C48.3839 11.045 48.7889 10.93 49.2589 10.93C49.8989 10.93 50.4139 11.12 50.8039 11.5C51.1939 11.88 51.4789 12.38 51.6589 13C51.8489 13.62 51.9439 14.29 51.9439 15.01C51.9439 15.53 51.8939 16.04 51.7939 16.54C51.6939 17.03 51.5339 17.47 51.3139 17.86C51.1039 18.24 50.8289 18.545 50.4889 18.775C50.1489 19.005 49.7439 19.12 49.2739 19.12ZM49.2589 17.92C49.7289 17.92 50.0889 17.69 50.3389 17.23C50.5989 16.77 50.7289 16.035 50.7289 15.025C50.7289 14.015 50.5989 13.28 50.3389 12.82C50.0889 12.36 49.7239 12.13 49.2439 12.13C48.7839 12.13 48.4239 12.36 48.1639 12.82C47.9139 13.28 47.7889 14.015 47.7889 15.025C47.7889 16.035 47.9189 16.77 48.1789 17.23C48.4389 17.69 48.7989 17.92 49.2589 17.92ZM55.7778 19.12C55.2978 19.12 54.8828 19.005 54.5328 18.775C54.1928 18.535 53.9128 18.22 53.6928 17.83C53.4828 17.44 53.3278 17.005 53.2278 16.525C53.1278 16.035 53.0778 15.535 53.0778 15.025C53.0778 14.505 53.1278 14.005 53.2278 13.525C53.3378 13.035 53.4978 12.595 53.7078 12.205C53.9278 11.815 54.2078 11.505 54.5478 11.275C54.8878 11.045 55.2928 10.93 55.7628 10.93C56.4028 10.93 56.9178 11.12 57.3078 11.5C57.6978 11.88 57.9828 12.38 58.1628 13C58.3528 13.62 58.4478 14.29 58.4478 15.01C58.4478 15.53 58.3978 16.04 58.2978 16.54C58.1978 17.03 58.0378 17.47 57.8178 17.86C57.6078 18.24 57.3328 18.545 56.9928 18.775C56.6528 19.005 56.2478 19.12 55.7778 19.12ZM55.7628 17.92C56.2328 17.92 56.5928 17.69 56.8428 17.23C57.1028 16.77 57.2328 16.035 57.2328 15.025C57.2328 14.015 57.1028 13.28 56.8428 12.82C56.5928 12.36 56.2278 12.13 55.7478 12.13C55.2878 12.13 54.9278 12.36 54.6678 12.82C54.4178 13.28 54.2928 14.015 54.2928 15.025C54.2928 16.035 54.4228 16.77 54.6828 17.23C54.9428 17.69 55.3028 17.92 55.7628 17.92ZM63.3917 19H62.1917V13.09C61.9017 13.34 61.6117 13.56 61.3217 13.75C61.0317 13.93 60.7317 14.085 60.4217 14.215V13.015C61.4317 12.485 62.1017 11.825 62.4317 11.035H63.3917V19ZM16.7544 34.12C16.2744 34.12 15.8594 34.005 15.5094 33.775C15.1694 33.535 14.8894 33.22 14.6694 32.83C14.4594 32.44 14.3044 32.005 14.2044 31.525C14.1044 31.035 14.0544 30.535 14.0544 30.025C14.0544 29.505 14.1044 29.005 14.2044 28.525C14.3144 28.035 14.4744 27.595 14.6844 27.205C14.9044 26.815 15.1844 26.505 15.5244 26.275C15.8644 26.045 16.2694 25.93 16.7394 25.93C17.3794 25.93 17.8944 26.12 18.2844 26.5C18.6744 26.88 18.9594 27.38 19.1394 28C19.3294 28.62 19.4244 29.29 19.4244 30.01C19.4244 30.53 19.3744 31.04 19.2744 31.54C19.1744 32.03 19.0144 32.47 18.7944 32.86C18.5844 33.24 18.3094 33.545 17.9694 33.775C17.6294 34.005 17.2244 34.12 16.7544 34.12ZM16.7394 32.92C17.2094 32.92 17.5694 32.69 17.8194 32.23C18.0794 31.77 18.2094 31.035 18.2094 30.025C18.2094 29.015 18.0794 28.28 17.8194 27.82C17.5694 27.36 17.2044 27.13 16.7244 27.13C16.2644 27.13 15.9044 27.36 15.6444 27.82C15.3944 28.28 15.2694 29.015 15.2694 30.025C15.2694 31.035 15.3994 31.77 15.6594 32.23C15.9194 32.69 16.2794 32.92 16.7394 32.92ZM24.3683 34H23.1683V28.09C22.8783 28.34 22.5883 28.56 22.2983 28.75C22.0083 28.93 21.7083 29.085 21.3983 29.215V28.015C22.4083 27.485 23.0783 26.825 23.4083 26.035H24.3683V34ZM30.8722 34H29.6722V28.09C29.3822 28.34 29.0922 28.56 28.8022 28.75C28.5122 28.93 28.2122 29.085 27.9022 29.215V28.015C28.9122 27.485 29.5822 26.825 29.9122 26.035H30.8722V34ZM37.3761 34H36.1761V28.09C35.8861 28.34 35.5961 28.56 35.3061 28.75C35.0161 28.93 34.7161 29.085 34.4061 29.215V28.015C35.4161 27.485 36.0861 26.825 36.4161 26.035H37.3761V34ZM43.88 34H42.68V28.09C42.39 28.34 42.1 28.56 41.81 28.75C41.52 28.93 41.22 29.085 40.91 29.215V28.015C41.92 27.485 42.59 26.825 42.92 26.035H43.88V34ZM49.2739 34.12C48.7939 34.12 48.3789 34.005 48.0289 33.775C47.6889 33.535 47.4089 33.22 47.1889 32.83C46.9789 32.44 46.8239 32.005 46.7239 31.525C46.6239 31.035 46.5739 30.535 46.5739 30.025C46.5739 29.505 46.6239 29.005 46.7239 28.525C46.8339 28.035 46.9939 27.595 47.2039 27.205C47.4239 26.815 47.7039 26.505 48.0439 26.275C48.3839 26.045 48.7889 25.93 49.2589 25.93C49.8989 25.93 50.4139 26.12 50.8039 26.5C51.1939 26.88 51.4789 27.38 51.6589 28C51.8489 28.62 51.9439 29.29 51.9439 30.01C51.9439 30.53 51.8939 31.04 51.7939 31.54C51.6939 32.03 51.5339 32.47 51.3139 32.86C51.1039 33.24 50.8289 33.545 50.4889 33.775C50.1489 34.005 49.7439 34.12 49.2739 34.12ZM49.2589 32.92C49.7289 32.92 50.0889 32.69 50.3389 32.23C50.5989 31.77 50.7289 31.035 50.7289 30.025C50.7289 29.015 50.5989 28.28 50.3389 27.82C50.0889 27.36 49.7239 27.13 49.2439 27.13C48.7839 27.13 48.4239 27.36 48.1639 27.82C47.9139 28.28 47.7889 29.015 47.7889 30.025C47.7889 31.035 47.9189 31.77 48.1789 32.23C48.4389 32.69 48.7989 32.92 49.2589 32.92ZM55.7778 34.12C55.2978 34.12 54.8828 34.005 54.5328 33.775C54.1928 33.535 53.9128 33.22 53.6928 32.83C53.4828 32.44 53.3278 32.005 53.2278 31.525C53.1278 31.035 53.0778 30.535 53.0778 30.025C53.0778 29.505 53.1278 29.005 53.2278 28.525C53.3378 28.035 53.4978 27.595 53.7078 27.205C53.9278 26.815 54.2078 26.505 54.5478 26.275C54.8878 26.045 55.2928 25.93 55.7628 25.93C56.4028 25.93 56.9178 26.12 57.3078 26.5C57.6978 26.88 57.9828 27.38 58.1628 28C58.3528 28.62 58.4478 29.29 58.4478 30.01C58.4478 30.53 58.3978 31.04 58.2978 31.54C58.1978 32.03 58.0378 32.47 57.8178 32.86C57.6078 33.24 57.3328 33.545 56.9928 33.775C56.6528 34.005 56.2478 34.12 55.7778 34.12ZM55.7628 32.92C56.2328 32.92 56.5928 32.69 56.8428 32.23C57.1028 31.77 57.2328 31.035 57.2328 30.025C57.2328 29.015 57.1028 28.28 56.8428 27.82C56.5928 27.36 56.2278 27.13 55.7478 27.13C55.2878 27.13 54.9278 27.36 54.6678 27.82C54.4178 28.28 54.2928 29.015 54.2928 30.025C54.2928 31.035 54.4228 31.77 54.6828 32.23C54.9428 32.69 55.3028 32.92 55.7628 32.92ZM63.3917 34H62.1917V28.09C61.9017 28.34 61.6117 28.56 61.3217 28.75C61.0317 28.93 60.7317 29.085 60.4217 29.215V28.015C61.4317 27.485 62.1017 26.825 62.4317 26.035H63.3917V34ZM16.7544 49.12C16.2744 49.12 15.8594 49.005 15.5094 48.775C15.1694 48.535 14.8894 48.22 14.6694 47.83C14.4594 47.44 14.3044 47.005 14.2044 46.525C14.1044 46.035 14.0544 45.535 14.0544 45.025C14.0544 44.505 14.1044 44.005 14.2044 43.525C14.3144 43.035 14.4744 42.595 14.6844 42.205C14.9044 41.815 15.1844 41.505 15.5244 41.275C15.8644 41.045 16.2694 40.93 16.7394 40.93C17.3794 40.93 17.8944 41.12 18.2844 41.5C18.6744 41.88 18.9594 42.38 19.1394 43C19.3294 43.62 19.4244 44.29 19.4244 45.01C19.4244 45.53 19.3744 46.04 19.2744 46.54C19.1744 47.03 19.0144 47.47 18.7944 47.86C18.5844 48.24 18.3094 48.545 17.9694 48.775C17.6294 49.005 17.2244 49.12 16.7544 49.12ZM16.7394 47.92C17.2094 47.92 17.5694 47.69 17.8194 47.23C18.0794 46.77 18.2094 46.035 18.2094 45.025C18.2094 44.015 18.0794 43.28 17.8194 42.82C17.5694 42.36 17.2044 42.13 16.7244 42.13C16.2644 42.13 15.9044 42.36 15.6444 42.82C15.3944 43.28 15.2694 44.015 15.2694 45.025C15.2694 46.035 15.3994 46.77 15.6594 47.23C15.9194 47.69 16.2794 47.92 16.7394 47.92ZM24.3683 49H23.1683V43.09C22.8783 43.34 22.5883 43.56 22.2983 43.75C22.0083 43.93 21.7083 44.085 21.3983 44.215V43.015C22.4083 42.485 23.0783 41.825 23.4083 41.035H24.3683V49ZM30.8722 49H29.6722V43.09C29.3822 43.34 29.0922 43.56 28.8022 43.75C28.5122 43.93 28.2122 44.085 27.9022 44.215V43.015C28.9122 42.485 29.5822 41.825 29.9122 41.035H30.8722V49ZM36.2661 49.12C35.7861 49.12 35.3711 49.005 35.0211 48.775C34.6811 48.535 34.4011 48.22 34.1811 47.83C33.9711 47.44 33.8161 47.005 33.7161 46.525C33.6161 46.035 33.5661 45.535 33.5661 45.025C33.5661 44.505 33.6161 44.005 33.7161 43.525C33.8261 43.035 33.9861 42.595 34.1961 42.205C34.4161 41.815 34.6961 41.505 35.0361 41.275C35.3761 41.045 35.7811 40.93 36.2511 40.93C36.8911 40.93 37.4061 41.12 37.7961 41.5C38.1861 41.88 38.4711 42.38 38.6511 43C38.8411 43.62 38.9361 44.29 38.9361 45.01C38.9361 45.53 38.8861 46.04 38.7861 46.54C38.6861 47.03 38.5261 47.47 38.3061 47.86C38.0961 48.24 37.8211 48.545 37.4811 48.775C37.1411 49.005 36.7361 49.12 36.2661 49.12ZM36.2511 47.92C36.7211 47.92 37.0811 47.69 37.3311 47.23C37.5911 46.77 37.7211 46.035 37.7211 45.025C37.7211 44.015 37.5911 43.28 37.3311 42.82C37.0811 42.36 36.7161 42.13 36.2361 42.13C35.7761 42.13 35.4161 42.36 35.1561 42.82C34.9061 43.28 34.7811 44.015 34.7811 45.025C34.7811 46.035 34.9111 46.77 35.1711 47.23C35.4311 47.69 35.7911 47.92 36.2511 47.92ZM43.88 49H42.68V43.09C42.39 43.34 42.1 43.56 41.81 43.75C41.52 43.93 41.22 44.085 40.91 44.215V43.015C41.92 42.485 42.59 41.825 42.92 41.035H43.88V49ZM50.3839 49H49.1839V43.09C48.8939 43.34 48.6039 43.56 48.3139 43.75C48.0239 43.93 47.7239 44.085 47.4139 44.215V43.015C48.4239 42.485 49.0939 41.825 49.4239 41.035H50.3839V49ZM56.8878 49H55.6878V43.09C55.3978 43.34 55.1078 43.56 54.8178 43.75C54.5278 43.93 54.2278 44.085 53.9178 44.215V43.015C54.9278 42.485 55.5978 41.825 55.9278 41.035H56.8878V49ZM63.3917 49H62.1917V43.09C61.9017 43.34 61.6117 43.56 61.3217 43.75C61.0317 43.93 60.7317 44.085 60.4217 44.215V43.015C61.4317 42.485 62.1017 41.825 62.4317 41.035H63.3917V49ZM16.7544 64.12C16.2744 64.12 15.8594 64.005 15.5094 63.775C15.1694 63.535 14.8894 63.22 14.6694 62.83C14.4594 62.44 14.3044 62.005 14.2044 61.525C14.1044 61.035 14.0544 60.535 14.0544 60.025C14.0544 59.505 14.1044 59.005 14.2044 58.525C14.3144 58.035 14.4744 57.595 14.6844 57.205C14.9044 56.815 15.1844 56.505 15.5244 56.275C15.8644 56.045 16.2694 55.93 16.7394 55.93C17.3794 55.93 17.8944 56.12 18.2844 56.5C18.6744 56.88 18.9594 57.38 19.1394 58C19.3294 58.62 19.4244 59.29 19.4244 60.01C19.4244 60.53 19.3744 61.04 19.2744 61.54C19.1744 62.03 19.0144 62.47 18.7944 62.86C18.5844 63.24 18.3094 63.545 17.9694 63.775C17.6294 64.005 17.2244 64.12 16.7544 64.12ZM16.7394 62.92C17.2094 62.92 17.5694 62.69 17.8194 62.23C18.0794 61.77 18.2094 61.035 18.2094 60.025C18.2094 59.015 18.0794 58.28 17.8194 57.82C17.5694 57.36 17.2044 57.13 16.7244 57.13C16.2644 57.13 15.9044 57.36 15.6444 57.82C15.3944 58.28 15.2694 59.015 15.2694 60.025C15.2694 61.035 15.3994 61.77 15.6594 62.23C15.9194 62.69 16.2794 62.92 16.7394 62.92ZM24.3683 64H23.1683V58.09C22.8783 58.34 22.5883 58.56 22.2983 58.75C22.0083 58.93 21.7083 59.085 21.3983 59.215V58.015C22.4083 57.485 23.0783 56.825 23.4083 56.035H24.3683V64ZM30.8722 64H29.6722V58.09C29.3822 58.34 29.0922 58.56 28.8022 58.75C28.5122 58.93 28.2122 59.085 27.9022 59.215V58.015C28.9122 57.485 29.5822 56.825 29.9122 56.035H30.8722V64ZM36.2661 64.12C35.7861 64.12 35.3711 64.005 35.0211 63.775C34.6811 63.535 34.4011 63.22 34.1811 62.83C33.9711 62.44 33.8161 62.005 33.7161 61.525C33.6161 61.035 33.5661 60.535 33.5661 60.025C33.5661 59.505 33.6161 59.005 33.7161 58.525C33.8261 58.035 33.9861 57.595 34.1961 57.205C34.4161 56.815 34.6961 56.505 35.0361 56.275C35.3761 56.045 35.7811 55.93 36.2511 55.93C36.8911 55.93 37.4061 56.12 37.7961 56.5C38.1861 56.88 38.4711 57.38 38.6511 58C38.8411 58.62 38.9361 59.29 38.9361 60.01C38.9361 60.53 38.8861 61.04 38.7861 61.54C38.6861 62.03 38.5261 62.47 38.3061 62.86C38.0961 63.24 37.8211 63.545 37.4811 63.775C37.1411 64.005 36.7361 64.12 36.2661 64.12ZM36.2511 62.92C36.7211 62.92 37.0811 62.69 37.3311 62.23C37.5911 61.77 37.7211 61.035 37.7211 60.025C37.7211 59.015 37.5911 58.28 37.3311 57.82C37.0811 57.36 36.7161 57.13 36.2361 57.13C35.7761 57.13 35.4161 57.36 35.1561 57.82C34.9061 58.28 34.7811 59.015 34.7811 60.025C34.7811 61.035 34.9111 61.77 35.1711 62.23C35.4311 62.69 35.7911 62.92 36.2511 62.92ZM43.88 64H42.68V58.09C42.39 58.34 42.1 58.56 41.81 58.75C41.52 58.93 41.22 59.085 40.91 59.215V58.015C41.92 57.485 42.59 56.825 42.92 56.035H43.88V64ZM50.3839 64H49.1839V58.09C48.8939 58.34 48.6039 58.56 48.3139 58.75C48.0239 58.93 47.7239 59.085 47.4139 59.215V58.015C48.4239 57.485 49.0939 56.825 49.4239 56.035H50.3839V64ZM56.8878 64H55.6878V58.09C55.3978 58.34 55.1078 58.56 54.8178 58.75C54.5278 58.93 54.2278 59.085 53.9178 59.215V58.015C54.9278 57.485 55.5978 56.825 55.9278 56.035H56.8878V64ZM62.2817 64.12C61.8017 64.12 61.3867 64.005 61.0367 63.775C60.6967 63.535 60.4167 63.22 60.1967 62.83C59.9867 62.44 59.8317 62.005 59.7317 61.525C59.6317 61.035 59.5817 60.535 59.5817 60.025C59.5817 59.505 59.6317 59.005 59.7317 58.525C59.8417 58.035 60.0017 57.595 60.2117 57.205C60.4317 56.815 60.7117 56.505 61.0517 56.275C61.3917 56.045 61.7967 55.93 62.2667 55.93C62.9067 55.93 63.4217 56.12 63.8117 56.5C64.2017 56.88 64.4867 57.38 64.6667 58C64.8567 58.62 64.9517 59.29 64.9517 60.01C64.9517 60.53 64.9017 61.04 64.8017 61.54C64.7017 62.03 64.5417 62.47 64.3217 62.86C64.1117 63.24 63.8367 63.545 63.4967 63.775C63.1567 64.005 62.7517 64.12 62.2817 64.12ZM62.2667 62.92C62.7367 62.92 63.0967 62.69 63.3467 62.23C63.6067 61.77 63.7367 61.035 63.7367 60.025C63.7367 59.015 63.6067 58.28 63.3467 57.82C63.0967 57.36 62.7317 57.13 62.2517 57.13C61.7917 57.13 61.4317 57.36 61.1717 57.82C60.9217 58.28 60.7967 59.015 60.7967 60.025C60.7967 61.035 60.9267 61.77 61.1867 62.23C61.4467 62.69 61.8067 62.92 62.2667 62.92Z" fill="#C9C9C9"/>
<mask id="path-11-inside-1_638_4" fill="white">
<path fill-rule="evenodd" clip-rule="evenodd" d="M12.4542 68.3731C12.7925 68.0149 13 67.5317 13 67C13 65.8954 12.1046 65 11 65C10.4811 65 10.0083 65.1976 9.65282 65.5218L12.4542 68.3731ZM9.58062 65.591C9.22173 65.9525 9 66.4503 9 67C9 68.1046 9.89543 69 11 69C11.5369 69 12.0245 68.7884 12.3837 68.4441L9.58062 65.591Z"/>
</mask>
<path fill-rule="evenodd" clip-rule="evenodd" d="M12.4542 68.3731C12.7925 68.0149 13 67.5317 13 67C13 65.8954 12.1046 65 11 65C10.4811 65 10.0083 65.1976 9.65282 65.5218L12.4542 68.3731ZM9.58062 65.591C9.22173 65.9525 9 66.4503 9 67C9 68.1046 9.89543 69 11 69C11.5369 69 12.0245 68.7884 12.3837 68.4441L9.58062 65.591Z" fill="#C9C9C9"/>
<path d="M12.4542 68.3731L12.3828 68.4432L12.4556 68.5172L12.5269 68.4418L12.4542 68.3731ZM9.65282 65.5218L9.58544 65.4479L9.50874 65.5178L9.58148 65.5919L9.65282 65.5218ZM9.58062 65.591L9.65195 65.5209L9.58099 65.4487L9.50965 65.5205L9.58062 65.591ZM12.3837 68.4441L12.4529 68.5163L12.526 68.4462L12.455 68.374L12.3837 68.4441ZM12.9 67C12.9 67.5051 12.703 67.964 12.3815 68.3044L12.5269 68.4418C12.8821 68.0657 13.1 67.5582 13.1 67H12.9ZM11 65.1C12.0493 65.1 12.9 65.9507 12.9 67H13.1C13.1 65.8402 12.1598 64.9 11 64.9V65.1ZM9.7202 65.5957C10.0579 65.2877 10.5069 65.1 11 65.1V64.9C10.4552 64.9 9.95859 65.1076 9.58544 65.4479L9.7202 65.5957ZM9.58148 65.5919L12.3828 68.4432L12.5255 68.303L9.72415 65.4517L9.58148 65.5919ZM9.1 67C9.1 66.4778 9.31053 66.005 9.65158 65.6614L9.50965 65.5205C9.13292 65.9 8.9 66.4229 8.9 67H9.1ZM11 68.9C9.95066 68.9 9.1 68.0493 9.1 67H8.9C8.9 68.1598 9.8402 69.1 11 69.1V68.9ZM12.3145 68.3719C11.9731 68.6991 11.5101 68.9 11 68.9V69.1C11.5637 69.1 12.0758 68.8777 12.4529 68.5163L12.3145 68.3719ZM12.455 68.374L9.65195 65.5209L9.50928 65.6611L12.3124 68.5142L12.455 68.374Z" fill="#9D9B9B" mask="url(#path-11-inside-1_638_4)"/>
</svg>
