<svg width="40" height="50" viewBox="0 0 14 17" fill="none" xmlns="http://www.w3.org/2000/svg">
<mask id="mask0_397_58" style="mask-type:luminance" maskUnits="userSpaceOnUse" x="0" y="0" width="14" height="17">
<path d="M14 16.506L-1.90735e-06 16.506L-5.08584e-07 0.519033L14 0.519034L14 16.506Z" fill="white"/>
</mask>
<g mask="url(#mask0_397_58)">
<path fill-rule="evenodd" clip-rule="evenodd" d="M-3.09176e-07 9.13981L4.09779e-07 0.922617C4.29263e-07 0.699922 0.171892 0.519033 0.383509 0.519033C0.464489 0.519033 0.54356 0.545964 0.60926 0.596211C4.43175 3.51858 9.56825 3.51858 13.3907 0.596212C13.4564 0.545965 13.5351 0.519034 13.6161 0.519034C13.8277 0.519034 13.9996 0.699924 13.9996 0.922618L14 9.14021C14 10.1343 13.8147 11.099 13.4496 12.0075C13.0974 12.8846 12.5924 13.6721 11.9499 14.3486C11.307 15.0251 10.5583 15.5561 9.72486 15.9272C8.86197 16.3115 7.94521 16.506 7.00019 16.506C6.05517 16.506 5.13841 16.3111 4.27514 15.9272C3.44165 15.5561 2.69335 15.0251 2.05048 14.3486C1.40798 13.6721 0.903385 12.8846 0.550817 12.0075C0.185261 11.099 -3.96187e-07 10.1343 -3.09176e-07 9.13981ZM0.767019 1.68476L0.767018 9.14021C0.767018 12.7568 3.56312 15.6992 6.99981 15.6992C10.4369 15.6992 13.233 12.7568 13.233 9.14021L13.233 1.68476C12.3972 2.24271 11.4996 2.68528 10.5564 3.00365C9.40629 3.39155 8.20993 3.58852 6.99981 3.58852C5.79046 3.58852 4.59371 3.39155 3.44394 3.00364C2.50045 2.68528 1.60279 2.2427 0.767019 1.68476Z" fill="#C0C0C0"/>
</g>
</svg>
