<svg width="73" height="94" viewBox="0 0 73 94" fill="none" xmlns="http://www.w3.org/2000/svg">
<path d="M35.12 54.456H33.28V53.208C33.7813 53.208 34.1813 53.1653 34.48 53.08C34.7893 52.9947 35.0347 52.856 35.216 52.664C35.3973 52.4613 35.5573 52.1733 35.696 51.8H36.88V63H35.12V54.456Z" fill="#C0C0C0"/>
<line x1="22.5" y1="19" x2="22.5" y2="94" stroke="#C0C0C0"/>
<line y1="71.5" x2="73" y2="71.5" stroke="#C0C0C0"/>
<line y1="42.5" x2="73" y2="42.5" stroke="#C0C0C0"/>
<path d="M11.5031 35.16C12.3671 35.16 13.0285 34.9147 13.4871 34.424C13.9458 33.9333 14.1751 33.24 14.1751 32.344V26.456C14.1751 25.56 13.9458 24.8667 13.4871 24.376C13.0285 23.8853 12.3671 23.64 11.5031 23.64C10.6391 23.64 9.97779 23.8853 9.51912 24.376C9.06046 24.8667 8.83112 25.56 8.83112 26.456V32.344C8.83112 33.24 9.06046 33.9333 9.51912 34.424C9.97779 34.9147 10.6391 35.16 11.5031 35.16ZM11.5031 33.56C10.8951 33.56 10.5911 33.192 10.5911 32.456V26.344C10.5911 25.608 10.8951 25.24 11.5031 25.24C12.1111 25.24 12.4151 25.608 12.4151 26.344V32.456C12.4151 33.192 12.1111 33.56 11.5031 33.56Z" fill="#C0C0C0"/>
<path d="M36.0031 36.16C36.8671 36.16 37.5285 35.9147 37.9871 35.424C38.4458 34.9333 38.6751 34.24 38.6751 33.344V27.456C38.6751 26.56 38.4458 25.8667 37.9871 25.376C37.5285 24.8853 36.8671 24.64 36.0031 24.64C35.1391 24.64 34.4778 24.8853 34.0191 25.376C33.5605 25.8667 33.3311 26.56 33.3311 27.456V33.344C33.3311 34.24 33.5605 34.9333 34.0191 35.424C34.4778 35.9147 35.1391 36.16 36.0031 36.16ZM36.0031 34.56C35.3951 34.56 35.0911 34.192 35.0911 33.456V27.344C35.0911 26.608 35.3951 26.24 36.0031 26.24C36.6111 26.24 36.9151 26.608 36.9151 27.344V33.456C36.9151 34.192 36.6111 34.56 36.0031 34.56Z" fill="#C0C0C0"/>
<path d="M11.0031 90.16C11.8671 90.16 12.5285 89.9147 12.9871 89.424C13.4458 88.9333 13.6751 88.24 13.6751 87.344V81.456C13.6751 80.56 13.4458 79.8667 12.9871 79.376C12.5285 78.8853 11.8671 78.64 11.0031 78.64C10.1391 78.64 9.47779 78.8853 9.01912 79.376C8.56046 79.8667 8.33112 80.56 8.33112 81.456V87.344C8.33112 88.24 8.56046 88.9333 9.01912 89.424C9.47779 89.9147 10.1391 90.16 11.0031 90.16ZM11.0031 88.56C10.3951 88.56 10.0911 88.192 10.0911 87.456V81.344C10.0911 80.608 10.3951 80.24 11.0031 80.24C11.6111 80.24 11.9151 80.608 11.9151 81.344V87.456C11.9151 88.192 11.6111 88.56 11.0031 88.56Z" fill="#C0C0C0"/>
<path d="M62.0031 63.16C62.8671 63.16 63.5285 62.9147 63.9871 62.424C64.4458 61.9333 64.6751 61.24 64.6751 60.344V54.456C64.6751 53.56 64.4458 52.8667 63.9871 52.376C63.5285 51.8853 62.8671 51.64 62.0031 51.64C61.1391 51.64 60.4778 51.8853 60.0191 52.376C59.5605 52.8667 59.3311 53.56 59.3311 54.456V60.344C59.3311 61.24 59.5605 61.9333 60.0191 62.424C60.4778 62.9147 61.1391 63.16 62.0031 63.16ZM62.0031 61.56C61.3951 61.56 61.0911 61.192 61.0911 60.456V54.344C61.0911 53.608 61.3951 53.24 62.0031 53.24C62.6111 53.24 62.9151 53.608 62.9151 54.344V60.456C62.9151 61.192 62.6111 61.56 62.0031 61.56Z" fill="#C0C0C0"/>
<path d="M36.0031 90.16C36.8671 90.16 37.5285 89.9147 37.9871 89.424C38.4458 88.9333 38.6751 88.24 38.6751 87.344V81.456C38.6751 80.56 38.4458 79.8667 37.9871 79.376C37.5285 78.8853 36.8671 78.64 36.0031 78.64C35.1391 78.64 34.4778 78.8853 34.0191 79.376C33.5605 79.8667 33.3311 80.56 33.3311 81.456V87.344C33.3311 88.24 33.5605 88.9333 34.0191 89.424C34.4778 89.9147 35.1391 90.16 36.0031 90.16ZM36.0031 88.56C35.3951 88.56 35.0911 88.192 35.0911 87.456V81.344C35.0911 80.608 35.3951 80.24 36.0031 80.24C36.6111 80.24 36.9151 80.608 36.9151 81.344V87.456C36.9151 88.192 36.6111 88.56 36.0031 88.56Z" fill="#C0C0C0"/>
<path d="M60.12 27.456H58.28V26.208C58.7813 26.208 59.1813 26.1653 59.48 26.08C59.7893 25.9947 60.0347 25.856 60.216 25.664C60.3973 25.4613 60.5573 25.1733 60.696 24.8H61.88V36H60.12V27.456Z" fill="#C0C0C0"/>
<path d="M10.12 54.456H8.28V53.208C8.78133 53.208 9.18133 53.1653 9.48 53.08C9.78933 52.9947 10.0347 52.856 10.216 52.664C10.3973 52.4613 10.5573 52.1733 10.696 51.8H11.88V63H10.12V54.456Z" fill="#C0C0C0"/>
<line x1="48.5" y1="19" x2="48.5" y2="94" stroke="#C0C0C0"/>
<path d="M61.12 81.456H59.28V80.208C59.7813 80.208 60.1813 80.1653 60.48 80.08C60.7893 79.9947 61.0347 79.856 61.216 79.664C61.3973 79.4613 61.5573 79.1733 61.696 78.8H62.88V90H61.12V81.456Z" fill="#C0C0C0"/>
</svg>
